<?xml version="1.0" encoding="iso-8859-1"?>
<!-- Uploaded to: SVG Repo, www.svgrepo.com, Generator: SVG Repo Mixer Tools -->
<!DOCTYPE svg PUBLIC "-//W3C//DTD SVG 1.1//EN" "http://www.w3.org/Graphics/SVG/1.1/DTD/svg11.dtd">
<svg fill="#000000" version="1.1" id="Capa_1" xmlns="http://www.w3.org/2000/svg" xmlns:xlink="http://www.w3.org/1999/xlink" 
	 width="800px" height="800px" viewBox="0 0 482.107 482.107"
	 xml:space="preserve">
<g>
	<g>
		<path d="M281.453,0c21.32,0,38.607,17.286,38.607,38.607c0,21.323-17.287,38.607-38.607,38.607
			c-21.327,0-38.609-17.284-38.609-38.607C242.844,17.286,260.126,0,281.453,0z"/>
		<path d="M364.263,196.534c4.509,3.925,10.215,6.003,16.018,6.003c2.569,0,5.158-0.407,7.658-1.238
			c8.18-2.717,14.319-9.548,16.154-17.969l30.865-106.177c0.457-2.134,0.533-4.238,0.429-6.32c-2.753,0.403-5.542,0.673-8.363,0.673
			c-4.709,0-9.434-0.569-14.038-1.693c-8.327-2.036-15.886-5.785-22.35-10.84c-1.503,2.36-2.688,4.967-3.318,7.865l-22.116,65.858
			l-27.127-23.654c-0.801-0.701-1.683-1.234-2.553-1.806l0.072-0.134l-0.529-0.194c-3.138-1.994-6.563-3.266-10.106-3.685
			L212.674,62.231c-6.49-4.147-14.819-5.184-22.467-2.012l-35.618,14.799L48.121,39.842c-12.788-4.218-26.555,2.713-30.779,15.492
			c-4.226,12.784,2.717,26.562,15.497,30.785l115.069,38.019c2.49,0.824,5.063,1.234,7.646,1.234c3.182,0,6.36-0.621,9.349-1.863
			l29.597-12.293l-18.637,106.892l0.072,0.03l-92,76.226c-3.719,3.09-6.601,7.077-8.352,11.585L22.107,443.359
			c-5.693,14.631,1.555,31.113,16.186,36.8c3.386,1.318,6.877,1.948,10.309,1.948c11.383,0,22.125-6.885,26.501-18.122
			l50.802-130.546l77.6-64.295l22.546,94.335c0.974,4.06,2.829,7.862,5.432,11.129l56.186,70.395
			c9.798,12.274,27.676,14.273,39.958,4.483c12.267-9.798,14.282-27.683,4.484-39.949l-52.232-65.441l-22.117-92.523l54.225-100.627
			L364.263,196.534z"/>
		<path d="M377.143,23.842c2.661,11.604,9.33,21.971,18.799,29.242c5.442,4.184,11.814,7.358,18.919,9.089
			c4.072,0.998,8.159,1.477,12.167,1.477c2.3,0,4.564-0.204,6.809-0.511c12.535-1.701,24.021-7.991,32.168-17.559
			c-4.192-18.278-18.262-33.576-37.71-38.345c-4.08-0.996-8.155-1.475-12.175-1.475C400.971,5.769,386.757,12.561,377.143,23.842z"
			/>
	</g>
</g>
</svg>